<?xml version="1.0" encoding="UTF-8"?><svg xmlns="http://www.w3.org/2000/svg" xmlns:xlink="http://www.w3.org/1999/xlink" fill-opacity="1" color-rendering="auto" color-interpolation="auto" text-rendering="auto" stroke="black" stroke-linecap="square" width="745" stroke-miterlimit="10" shape-rendering="auto" stroke-opacity="1" fill="black" stroke-dasharray="none" font-weight="normal" stroke-width="1" height="674" font-family="'Dialog'" font-style="normal" stroke-linejoin="miter" font-size="12px" stroke-dashoffset="0" image-rendering="auto">
  <!--Generated by ySVG 2.5-->
  <defs id="genericDefs"/>
  <g>
    <defs id="defs1">
      <clipPath clipPathUnits="userSpaceOnUse" id="clipPath1">
        <path d="M0 0 L745 0 L745 674 L0 674 L0 0 Z"/>
      </clipPath>
      <clipPath clipPathUnits="userSpaceOnUse" id="clipPath2">
        <path d="M92 90 L837 90 L837 764 L92 764 L92 90 Z"/>
      </clipPath>
    </defs>
    <g fill="white" text-rendering="geometricPrecision" shape-rendering="geometricPrecision" transform="translate(-92,-90)" stroke="white">
      <rect x="92" width="745" height="674" y="90" clip-path="url(#clipPath2)" stroke="none"/>
    </g>
    <g fill="rgb(153,204,255)" text-rendering="geometricPrecision" shape-rendering="geometricPrecision" transform="matrix(1,0,0,1,-92,-90)" stroke="rgb(153,204,255)">
      <rect x="425.5" y="480" clip-path="url(#clipPath2)" width="187" rx="4" ry="4" height="81" stroke="none"/>
    </g>
    <g text-rendering="geometricPrecision" stroke-miterlimit="1.45" shape-rendering="geometricPrecision" transform="matrix(1,0,0,1,-92,-90)" stroke-linecap="butt">
      <rect x="425.5" y="480" clip-path="url(#clipPath2)" fill="none" width="187" rx="4" ry="4" height="81"/>
      <text x="476.7803" xml:space="preserve" y="517.6699" clip-path="url(#clipPath2)" font-family="sans-serif" stroke="none">kwanko-proxy</text>
      <text x="435.1758" xml:space="preserve" y="531.6387" clip-path="url(#clipPath2)" font-family="sans-serif" stroke="none">(inside client infrastructure)</text>
    </g>
    <g fill="rgb(204,204,255)" text-rendering="geometricPrecision" shape-rendering="geometricPrecision" transform="matrix(1,0,0,1,-92,-90)" stroke="rgb(204,204,255)">
      <rect x="425.5" y="105.7818" clip-path="url(#clipPath2)" width="187" rx="4" ry="4" height="81" stroke="none"/>
    </g>
    <g text-rendering="geometricPrecision" stroke-miterlimit="1.45" shape-rendering="geometricPrecision" font-family="sans-serif" transform="matrix(1,0,0,1,-92,-90)" stroke-linecap="butt">
      <text x="480.0762" xml:space="preserve" y="150.4361" clip-path="url(#clipPath2)" stroke="none">Internet user</text>
      <rect x="425.5" y="105.7818" clip-path="url(#clipPath2)" fill="none" width="187" rx="4" ry="4" height="81"/>
    </g>
    <g fill="rgb(229,229,229)" text-rendering="geometricPrecision" shape-rendering="geometricPrecision" transform="matrix(1,0,0,1,-92,-90)" stroke="rgb(229,229,229)">
      <rect x="425.5" y="667.1091" clip-path="url(#clipPath2)" width="187" rx="4" ry="4" height="81" stroke="none"/>
    </g>
    <g text-rendering="geometricPrecision" stroke-miterlimit="1.45" shape-rendering="geometricPrecision" transform="matrix(1,0,0,1,-92,-90)" stroke-linecap="butt">
      <rect x="425.5" y="667.1091" clip-path="url(#clipPath2)" fill="none" width="187" rx="4" ry="4" height="81"/>
      <text x="443.9414" xml:space="preserve" y="704.779" clip-path="url(#clipPath2)" font-family="sans-serif" stroke="none">action.metaffiliation.com</text>
      <text x="428.1885" xml:space="preserve" y="718.7477" clip-path="url(#clipPath2)" font-family="sans-serif" stroke="none">(inside Kwanko infrastructure)</text>
    </g>
    <g fill="rgb(153,204,255)" text-rendering="geometricPrecision" shape-rendering="geometricPrecision" transform="matrix(1,0,0,1,-92,-90)" stroke="rgb(153,204,255)">
      <rect x="425.5" y="292.8909" clip-path="url(#clipPath2)" width="187" rx="4" ry="4" height="81" stroke="none"/>
    </g>
    <g text-rendering="geometricPrecision" stroke-miterlimit="1.45" shape-rendering="geometricPrecision" transform="matrix(1,0,0,1,-92,-90)" stroke-linecap="butt">
      <rect x="425.5" y="292.8909" clip-path="url(#clipPath2)" fill="none" width="187" rx="4" ry="4" height="81"/>
      <text x="478.1807" xml:space="preserve" y="330.5609" clip-path="url(#clipPath2)" font-family="sans-serif" stroke="none">load balancer</text>
      <text x="435.1758" xml:space="preserve" y="344.5296" clip-path="url(#clipPath2)" font-family="sans-serif" stroke="none">(inside client infrastructure)</text>
      <path fill="none" d="M463 561.0172 L463 659.114" clip-path="url(#clipPath2)"/>
      <path d="M463 667.114 L468 655.114 L463 658.114 L458 655.114 Z" clip-path="url(#clipPath2)" stroke="none"/>
      <text x="152.8629" xml:space="preserve" y="590.2714" clip-path="url(#clipPath2)" font-family="sans-serif" stroke="none">HTTPS over Internet</text>
      <text x="152.8629" xml:space="preserve" y="604.2401" clip-path="url(#clipPath2)" font-family="sans-serif" stroke="none">Host: action.metaffiliation.com</text>
      <text x="152.8629" xml:space="preserve" y="618.2089" clip-path="url(#clipPath2)" font-family="sans-serif" stroke="none">X-Forwarded-Host: first-party.client-domain.tld</text>
      <text x="152.8629" xml:space="preserve" y="632.1776" clip-path="url(#clipPath2)" font-family="sans-serif" stroke="none">X-Forwarded-For: Internet user's IP</text>
      <text x="152.8629" xml:space="preserve" y="646.1464" clip-path="url(#clipPath2)" font-family="sans-serif" stroke="none">Cookie: whitelisted kwanko cookies</text>
      <path fill="none" d="M572 667.1281 L572 568.9673" clip-path="url(#clipPath2)"/>
      <path d="M572 560.9673 L567 572.9673 L572 569.9673 L577 572.9673 Z" clip-path="url(#clipPath2)" stroke="none"/>
      <text x="580.9246" xml:space="preserve" y="597.2557" clip-path="url(#clipPath2)" font-family="sans-serif" stroke="none">HTTPS over Internet</text>
      <text x="580.9246" xml:space="preserve" y="611.2245" clip-path="url(#clipPath2)" font-family="sans-serif" stroke="none">Set-Cookie: kwanko cookie</text>
      <text x="580.9246" xml:space="preserve" y="625.1932" clip-path="url(#clipPath2)" font-family="sans-serif" stroke="none">Set-Cookie: kwanko cookie</text>
      <text x="580.9246" xml:space="preserve" y="639.162" clip-path="url(#clipPath2)" font-family="sans-serif" stroke="none">...</text>
      <path fill="none" d="M465 186.8242 L465 284.8939" clip-path="url(#clipPath2)"/>
      <path d="M465 292.8939 L470 280.8939 L465 283.8939 L460 280.8939 Z" clip-path="url(#clipPath2)" stroke="none"/>
      <text x="109.5166" xml:space="preserve" y="229.0219" clip-path="url(#clipPath2)" font-family="sans-serif" stroke="none">HTTPS over Internet</text>
      <text x="109.5166" xml:space="preserve" y="242.9907" clip-path="url(#clipPath2)" font-family="sans-serif" stroke="none">Host: first-party.client-domain.tld</text>
      <text x="109.5166" xml:space="preserve" y="256.9594" clip-path="url(#clipPath2)" font-family="sans-serif" stroke="none">Cookie: client base domain cookies and kwanko cookies</text>
      <path fill="none" d="M572 480.0127 L572 381.8984" clip-path="url(#clipPath2)"/>
      <path d="M572 373.8984 L567 385.8984 L572 382.8984 L577 385.8984 Z" clip-path="url(#clipPath2)" stroke="none"/>
      <text x="586.6611" xml:space="preserve" y="412.1466" clip-path="url(#clipPath2)" font-family="sans-serif" stroke="none">HTTP or HTTPS</text>
      <text x="586.6611" xml:space="preserve" y="426.1154" clip-path="url(#clipPath2)" font-family="sans-serif" stroke="none">Set-Cookie: whitelisted kwanko cookie</text>
      <text x="586.6611" xml:space="preserve" y="440.0841" clip-path="url(#clipPath2)" font-family="sans-serif" stroke="none">Set-Cookie: whitelisted kwanko cookie</text>
      <text x="586.6611" xml:space="preserve" y="454.0529" clip-path="url(#clipPath2)" font-family="sans-serif" stroke="none">...</text>
      <path fill="none" d="M465 373.9194 L465 472.0257" clip-path="url(#clipPath2)"/>
      <path d="M465 480.0257 L470 468.0257 L465 471.0257 L460 468.0257 Z" clip-path="url(#clipPath2)" stroke="none"/>
      <text x="116.5166" xml:space="preserve" y="410.1466" clip-path="url(#clipPath2)" font-family="sans-serif" stroke="none">HTTP or HTTPS</text>
      <text x="116.5166" xml:space="preserve" y="424.1154" clip-path="url(#clipPath2)" font-family="sans-serif" stroke="none">Host: first-party.client-domain.tld</text>
      <text x="116.5166" xml:space="preserve" y="438.0841" clip-path="url(#clipPath2)" font-family="sans-serif" stroke="none">X-Forwared-For: Internet user's IP</text>
      <text x="116.5166" xml:space="preserve" y="452.0529" clip-path="url(#clipPath2)" font-family="sans-serif" stroke="none">Cookie: client base domain cookies and kwanko cookies</text>
      <path fill="none" d="M571 292.9126 L571 194.8147" clip-path="url(#clipPath2)"/>
      <path d="M571 186.8147 L566 198.8147 L571 195.8147 L576 198.8147 Z" clip-path="url(#clipPath2)" stroke="none"/>
      <text x="588.6611" xml:space="preserve" y="221.0376" clip-path="url(#clipPath2)" font-family="sans-serif" stroke="none">HTTPS over Internet</text>
      <text x="588.6611" xml:space="preserve" y="235.0063" clip-path="url(#clipPath2)" font-family="sans-serif" stroke="none">Set-Cookie: whitelisted kwanko cookie</text>
      <text x="588.6611" xml:space="preserve" y="248.9751" clip-path="url(#clipPath2)" font-family="sans-serif" stroke="none">Set-Cookie: whitelisted kwanko cookie</text>
      <text x="588.6611" xml:space="preserve" y="262.9438" clip-path="url(#clipPath2)" font-family="sans-serif" stroke="none">...</text>
    </g>
  </g>
</svg>
